<svg width="305" height="61" viewBox="0 0 305 61" fill="none" xmlns="http://www.w3.org/2000/svg">
<path d="M54.3978 0H10.637C7.3412 0 4.64136 2.67161 4.64136 5.9674V55.0326C4.64136 58.3283 7.34132 61 10.637 61H54.3978C55.4963 61 56.3588 60.1094 56.3588 59.0108V1.98917C56.3586 0.890576 55.4963 0 54.3978 0ZM52.3804 57.0218H10.637C9.53851 57.0218 8.64782 56.1312 8.64782 55.0326C8.64782 53.9358 9.54018 53.0434 10.637 53.0434C31.5185 53.0434 31.6935 53.0434 52.3805 53.0434V57.0218H52.3804ZM52.3804 49.0652H10.637C9.93573 49.0652 9.2826 49.2084 8.61958 49.4305V5.9674C8.61958 4.86892 9.53839 3.97822 10.637 3.97822H52.3805V49.0652H52.3804Z" fill="black"/>
<path d="M38.4848 19.8914H32.4892V13.924C32.4892 12.8255 31.5986 11.9348 30.5 11.9348C29.4015 11.9348 28.5109 12.8254 28.5109 13.924V19.8914H22.5717C21.4732 19.8914 20.5825 20.782 20.5825 21.8806C20.5825 22.979 21.4731 23.8697 22.5717 23.8697H28.5109V37.7937C28.5109 38.8922 29.4014 39.7829 30.5 39.7829C31.5985 39.7829 32.4892 38.8923 32.4892 37.7937V23.8697H38.4848C39.5833 23.8697 40.474 22.9791 40.474 21.8806C40.4739 20.782 39.5833 19.8914 38.4848 19.8914Z" fill="black"/>
<path d="M79.4759 49V12.6364H94.0356C96.7108 12.6364 98.9421 13.0329 100.729 13.826C102.517 14.6191 103.86 15.7199 104.76 17.1286C105.66 18.5253 106.109 20.1352 106.109 21.9581C106.109 23.3786 105.825 24.6274 105.257 25.7045C104.689 26.7699 103.908 27.6458 102.913 28.3324C101.931 29.0071 100.806 29.4865 99.5399 29.7706V30.1257C100.925 30.1849 102.221 30.5755 103.428 31.2976C104.648 32.0196 105.636 33.0317 106.394 34.3338C107.151 35.6241 107.53 37.1629 107.53 38.9503C107.53 40.8797 107.051 42.602 106.092 44.1172C105.145 45.6205 103.742 46.8101 101.884 47.6861C100.025 48.562 97.7347 49 95.0122 49H79.4759ZM87.1642 42.7145H93.4319C95.5744 42.7145 97.1369 42.3061 98.1194 41.4893C99.1019 40.6607 99.5931 39.5599 99.5931 38.1868C99.5931 37.1806 99.3505 36.2929 98.8651 35.5234C98.3798 34.754 97.6874 34.1503 96.7877 33.7124C95.8999 33.2744 94.8405 33.0554 93.6095 33.0554H87.1642V42.7145ZM87.1642 27.853H92.8637C93.9172 27.853 94.8524 27.6695 95.6691 27.3026C96.4977 26.9238 97.1488 26.3911 97.6222 25.7045C98.1076 25.018 98.3502 24.1953 98.3502 23.2365C98.3502 21.9226 97.8827 20.8632 96.9475 20.0582C96.0242 19.2533 94.7103 18.8509 93.0058 18.8509H87.1642V27.853ZM112.391 49V21.7273H119.954V49H112.391ZM116.19 18.2116C115.066 18.2116 114.101 17.8388 113.296 17.093C112.503 16.3355 112.106 15.4299 112.106 14.3764C112.106 13.3348 112.503 12.4411 113.296 11.6953C114.101 10.9377 115.066 10.5589 116.19 10.5589C117.315 10.5589 118.274 10.9377 119.067 11.6953C119.872 12.4411 120.274 13.3348 120.274 14.3764C120.274 15.4299 119.872 16.3355 119.067 17.093C118.274 17.8388 117.315 18.2116 116.19 18.2116ZM126.156 49V12.6364H133.72V26.3082H133.95C134.282 25.5743 134.761 24.8286 135.389 24.071C136.028 23.3016 136.856 22.6624 137.874 22.1534C138.904 21.6326 140.183 21.3722 141.71 21.3722C143.698 21.3722 145.533 21.893 147.214 22.9347C148.895 23.9645 150.238 25.5211 151.244 27.6044C152.251 29.6759 152.754 32.2741 152.754 35.3991C152.754 38.4413 152.262 41.0099 151.28 43.1051C150.309 45.1884 148.984 46.7687 147.303 47.8459C145.634 48.9112 143.763 49.4439 141.692 49.4439C140.224 49.4439 138.975 49.2012 137.945 48.7159C136.927 48.2306 136.093 47.621 135.442 46.8871C134.791 46.1413 134.294 45.3897 133.95 44.6321H133.613V49H126.156ZM133.56 35.3636C133.56 36.9853 133.785 38.3999 134.234 39.6072C134.684 40.8146 135.335 41.7557 136.188 42.4304C137.04 43.0933 138.076 43.4247 139.295 43.4247C140.526 43.4247 141.568 43.0874 142.42 42.4126C143.272 41.7261 143.917 40.7791 144.355 39.5717C144.805 38.3525 145.03 36.9498 145.03 35.3636C145.03 33.7893 144.811 32.4044 144.373 31.2088C143.935 30.0133 143.29 29.0781 142.438 28.4034C141.585 27.7287 140.538 27.3913 139.295 27.3913C138.064 27.3913 137.022 27.7169 136.17 28.3679C135.329 29.0189 134.684 29.9422 134.234 31.1378C133.785 32.3333 133.56 33.742 133.56 35.3636ZM165.365 12.6364V49H157.801V12.6364H165.365ZM183.853 49.5327C181.047 49.5327 178.633 48.9645 176.608 47.8281C174.596 46.6799 173.045 45.0582 171.956 42.9631C170.867 40.8561 170.323 38.3643 170.323 35.4879C170.323 32.6825 170.867 30.2204 171.956 28.1016C173.045 25.9827 174.578 24.3314 176.555 23.1477C178.544 21.964 180.876 21.3722 183.551 21.3722C185.35 21.3722 187.025 21.6622 188.576 22.2422C190.138 22.8104 191.499 23.6686 192.66 24.8168C193.831 25.965 194.743 27.4091 195.394 29.1491C196.045 30.8774 196.37 32.9015 196.37 35.2216V37.299H173.341V32.6115H189.25C189.25 31.5225 189.014 30.5578 188.54 29.7173C188.067 28.8769 187.41 28.2199 186.569 27.7464C185.741 27.2611 184.776 27.0185 183.675 27.0185C182.527 27.0185 181.509 27.2848 180.621 27.8175C179.745 28.3383 179.059 29.0426 178.562 29.9304C178.064 30.8063 177.81 31.7829 177.798 32.8601V37.3168C177.798 38.6662 178.047 39.8321 178.544 40.8146C179.053 41.7971 179.769 42.5547 180.692 43.0874C181.616 43.62 182.71 43.8864 183.977 43.8864C184.817 43.8864 185.587 43.768 186.285 43.5312C186.984 43.2945 187.581 42.9394 188.079 42.4659C188.576 41.9924 188.955 41.4124 189.215 40.7259L196.211 41.1875C195.856 42.8684 195.128 44.3362 194.027 45.5909C192.938 46.8338 191.529 47.8045 189.801 48.5028C188.084 49.1894 186.102 49.5327 183.853 49.5327Z" fill="black"/>
<path d="M201.449 12.6364H210.93L220.944 37.0682H221.37L231.385 12.6364H240.866V49H233.409V25.3317H233.107L223.696 48.8224H218.618L209.208 25.2429H208.906V49H201.449V12.6364ZM254.835 49.5149C253.095 49.5149 251.545 49.2131 250.184 48.6094C248.822 47.9938 247.745 47.0883 246.952 45.8928C246.171 44.6854 245.78 43.1821 245.78 41.3828C245.78 39.8677 246.058 38.5952 246.615 37.5653C247.171 36.5355 247.929 35.7069 248.887 35.0795C249.846 34.4522 250.935 33.9787 252.154 33.6591C253.385 33.3395 254.676 33.1146 256.025 32.9844C257.611 32.8187 258.89 32.6648 259.86 32.5227C260.831 32.3688 261.535 32.1439 261.973 31.848C262.411 31.5521 262.63 31.1141 262.63 30.5341V30.4276C262.63 29.303 262.275 28.433 261.565 27.8175C260.867 27.2019 259.872 26.8942 258.582 26.8942C257.221 26.8942 256.138 27.196 255.333 27.7997C254.528 28.3916 253.995 29.1373 253.735 30.0369L246.739 29.4688C247.094 27.8116 247.792 26.3793 248.834 25.1719C249.876 23.9527 251.219 23.0175 252.865 22.3665C254.522 21.7036 256.439 21.3722 258.617 21.3722C260.133 21.3722 261.583 21.5497 262.968 21.9048C264.364 22.2599 265.601 22.8104 266.679 23.5561C267.768 24.3018 268.626 25.2607 269.253 26.4325C269.88 27.5926 270.194 28.9834 270.194 30.6051V49H263.021V45.218H262.808C262.37 46.0703 261.784 46.822 261.05 47.473C260.316 48.1122 259.434 48.6153 258.404 48.9822C257.375 49.3374 256.185 49.5149 254.835 49.5149ZM257.002 44.2947C258.114 44.2947 259.097 44.0758 259.949 43.6378C260.801 43.188 261.47 42.5843 261.956 41.8267C262.441 41.0691 262.684 40.2109 262.684 39.2521V36.358C262.447 36.5118 262.121 36.6539 261.707 36.7841C261.304 36.9025 260.849 37.0149 260.34 37.1214C259.831 37.2161 259.322 37.3049 258.813 37.3878C258.304 37.4588 257.842 37.5239 257.428 37.5831C256.54 37.7133 255.765 37.9205 255.102 38.2045C254.439 38.4886 253.924 38.8733 253.557 39.3587C253.19 39.8321 253.007 40.424 253.007 41.1342C253.007 42.1641 253.38 42.9512 254.125 43.4957C254.883 44.0284 255.842 44.2947 257.002 44.2947ZM276.062 59.2273V21.7273H283.52V26.3082H283.857C284.189 25.5743 284.668 24.8286 285.295 24.071C285.935 23.3016 286.763 22.6624 287.781 22.1534C288.811 21.6326 290.089 21.3722 291.616 21.3722C293.605 21.3722 295.44 21.893 297.121 22.9347C298.802 23.9645 300.145 25.5211 301.151 27.6044C302.157 29.6759 302.66 32.2741 302.66 35.3991C302.66 38.4413 302.169 41.0099 301.187 43.1051C300.216 45.1884 298.89 46.7687 297.209 47.8459C295.54 48.9112 293.67 49.4439 291.599 49.4439C290.131 49.4439 288.882 49.2012 287.852 48.7159C286.834 48.2306 286 47.621 285.349 46.8871C284.698 46.1413 284.2 45.3897 283.857 44.6321H283.626V59.2273H276.062ZM283.467 35.3636C283.467 36.9853 283.691 38.3999 284.141 39.6072C284.591 40.8146 285.242 41.7557 286.094 42.4304C286.947 43.0933 287.982 43.4247 289.202 43.4247C290.433 43.4247 291.474 43.0874 292.327 42.4126C293.179 41.7261 293.824 40.7791 294.262 39.5717C294.712 38.3525 294.937 36.9498 294.937 35.3636C294.937 33.7893 294.718 32.4044 294.28 31.2088C293.842 30.0133 293.197 29.0781 292.344 28.4034C291.492 27.7287 290.445 27.3913 289.202 27.3913C287.971 27.3913 286.929 27.7169 286.077 28.3679C285.236 29.0189 284.591 29.9422 284.141 31.1378C283.691 32.3333 283.467 33.742 283.467 35.3636Z" fill="#855940"/>
</svg>
